<?xml version="1.0" encoding="UTF-8"?>
<!DOCTYPE svg PUBLIC "-//W3C//DTD SVG 1.1//EN" "http://www.w3.org/Graphics/SVG/1.1/DTD/svg11.dtd">
<!-- Creator: CorelDRAW X7 -->
<svg xmlns="http://www.w3.org/2000/svg" xml:space="preserve" width="0.425724in" height="0.119606in" version="1.1" style="shape-rendering:geometricPrecision; text-rendering:geometricPrecision; image-rendering:optimizeQuality; fill-rule:evenodd; clip-rule:evenodd"
viewBox="0 0 60 17"
 xmlns:xlink="http://www.w3.org/1999/xlink">
 <defs>
  <style type="text/css">
   <![CDATA[
    .fil1 {fill:#FA0001}
    .fil0 {fill:white}
   ]]>
  </style>
 </defs>
 <g id="Layer_x0020_1">
  <metadata id="CorelCorpID_0Corel-Layer"/>
  <path class="fil0" d="M32 10c0,-1 1,-1 1,-2l0 7 -1 -1c-5,2 -5,-6 0,-4zm-13 -1c3,0 4,4 1,5 -3,1 -4,-4 -1,-5zm-6 5c-1,-1 -1,-3 -1,-5l2 0c0,1 -1,2 -1,3 0,0 1,1 1,2 -1,0 -1,0 -1,0zm31 -7c-1,0 0,0 -1,0l0 0c-1,0 -2,0 -3,0 -1,0 -2,2 -4,3l0 -10 -3 0 0 7c-1,0 -2,0 -2,-1 -4,0 -6,3 -6,3 -1,-1 -2,-2 -5,-3 -1,0 -2,1 -3,1 -2,1 -1,1 -2,1 0,1 0,0 -1,1l0 -2 -2 0 0 -4 -3 0 0 4c-3,0 -4,-1 -6,0 -1,0 -3,1 -2,3 0,2 2,2 3,3 1,1 1,2 -1,1 0,0 -1,0 -2,-1l-1 3c1,1 3,1 4,1 6,0 5,-5 3,-6 -2,-1 -3,0 -3,-2 1,-1 2,0 3,0 0,0 0,1 0,0l2 0c0,4 -1,10 6,7l0 -1c1,2 3,2 5,2 3,0 4,-2 5,-3 0,0 0,1 1,1 3,3 6,1 7,1 0,1 0,1 0,1 1,0 1,0 1,0 1,0 2,0 2,0l0 -4c1,0 1,1 2,1 0,1 1,1 1,2 1,1 1,1 3,1 1,0 2,0 3,0 -1,-1 -5,-5 -5,-5 0,-1 3,-5 4,-5l0 0z"/>
  <path class="fil1" d="M43 7l0 0c1,0 0,0 1,0 0,-1 1,-1 2,-1l0 11 3 0 0 -10c1,0 2,-1 3,-1l0 11 3 0 0 -16c-3,-1 -3,1 -6,2l0 -2c-2,-1 -2,0 -3,1 -1,0 -3,1 -3,2l0 3z"/>
  <path class="fil0" d="M60 15c1,-3 -3,-4 -4,-1 -1,3 4,4 4,1z"/>
 </g>
</svg>
