<?xml version="1.0" encoding="UTF-8"?>
<!DOCTYPE svg PUBLIC "-//W3C//DTD SVG 1.1//EN" "http://www.w3.org/Graphics/SVG/1.1/DTD/svg11.dtd">
<!-- Creator: CorelDRAW X7 -->
<svg xmlns="http://www.w3.org/2000/svg" xml:space="preserve" width="1.45156in" height="0.407803in" version="1.1" style="shape-rendering:geometricPrecision; text-rendering:geometricPrecision; image-rendering:optimizeQuality; fill-rule:evenodd; clip-rule:evenodd"
viewBox="0 0 523 147"
 xmlns:xlink="http://www.w3.org/1999/xlink">
 <defs>
  <style type="text/css">
   <![CDATA[
    .fil1 {fill:#FA0001}
    .fil0 {fill:white}
   ]]>
  </style>
 </defs>
 <g id="Layer_x0020_1">
  <metadata id="CorelCorpID_0Corel-Layer"/>
  <path class="fil0" d="M278 83c2,-3 4,-8 7,-10l-1 57 -6 -11c-47,18 -46,-54 0,-36zm-114 -1c28,-6 33,35 9,39 -28,6 -34,-34 -9,-39zm-54 37c-5,-9 -3,-26 -3,-38l14 0c-2,7 -4,10 -4,19 0,6 2,15 2,19 -4,2 -4,2 -9,0zm270 -61c-3,1 -3,2 -7,3l-1 -3c-7,0 -15,0 -22,0 -13,0 -24,24 -35,29l0 -87 -30 0 0 60c-5,0 -12,-3 -20,-4 -34,-3 -45,23 -49,26 -10,-14 -19,-24 -41,-26 -10,-1 -21,0 -29,4 -12,5 -11,6 -18,12 -2,2 -1,1 -3,2l0 -16 -18 0 0 -32 -30 0 0 32c-22,2 -29,-6 -50,0 -13,3 -25,14 -21,32 4,14 19,16 31,23 10,5 5,14 -7,11 -8,-1 -13,-6 -19,-8l-11 19c6,9 24,12 37,12 46,-2 41,-39 26,-49 -17,-12 -30,-7 -28,-20 11,-5 20,1 24,2 5,2 3,2 5,-2l13 3c0,32 -7,82 51,61l0 -11c13,13 28,17 47,16 22,-2 32,-13 41,-26 3,3 4,6 7,9 27,28 54,12 61,13 3,0 -1,1 6,1 3,1 6,0 9,0 5,0 10,0 15,0l0 -33c3,2 11,9 14,13 4,4 9,9 13,13 8,7 4,7 19,7 9,0 18,1 26,0 -2,-4 -40,-41 -43,-43 2,-5 34,-37 40,-42l-3 -1z"/>
  <path class="fil1" d="M372 58l1 3c4,-1 4,-2 7,-3 3,-3 10,-8 15,-9l0 95 32 0 0 -83c7,-3 15,-10 22,-12l0 95 31 0 0 -138c-27,-2 -31,15 -53,24l0 -24c-16,-3 -21,4 -30,10 -5,3 -20,12 -25,16l0 26z"/>
  <path class="fil0" d="M523 133c6,-25 -31,-34 -38,-11 -6,27 31,34 38,11z"/>
 </g>
</svg>
